<?xml version="1.0" encoding="UTF-8" standalone="no"?>
<!DOCTYPE svg PUBLIC "-//W3C//DTD SVG 1.1//EN" "http://www.w3.org/Graphics/SVG/1.1/DTD/svg11.dtd">
<svg width="100%" height="100%" viewBox="0 0 1024 1024" version="1.1" xmlns="http://www.w3.org/2000/svg" xmlns:xlink="http://www.w3.org/1999/xlink" xml:space="preserve" xmlns:serif="http://www.serif.com/" style="fill-rule:evenodd;clip-rule:evenodd;stroke-linejoin:round;stroke-miterlimit:2;">
    <g transform="matrix(1,0,0,1,-1088,0)">
        <g id="v2" transform="matrix(1,0,0,1,1088,0)">
            <rect x="0" y="0" width="1024" height="1024" style="fill:none;"/>
            <g id="shield" transform="matrix(1.06667,0,0,1.06667,-34.4826,-31.9832)">
                <path d="M469.788,114.218C496.793,113.116 525.614,117.375 550.746,127.478C577.405,138.195 601.768,155.618 616.569,180.756C621.43,189.012 625.028,197.942 628.795,206.731C631.022,207.276 633.241,207.849 635.453,208.448C675.538,219.374 715.411,231.312 755.381,242.668L806.544,257.337C816.016,260.049 825.764,262.439 835.08,265.639C837.214,266.372 840.295,267.221 841.419,269.287C844.949,275.773 844.022,298.005 844.038,306.15C844.375,336.385 843.281,366.569 840.757,396.701C838.933,416.527 835.897,436.28 832.911,455.963C828.843,482.777 823.976,509.663 816.692,535.808C780.803,664.634 717.823,764.615 611.173,845.733C599.748,854.534 588.04,862.94 576.047,870.95C564.054,878.96 551.804,886.556 539.298,893.739C533.181,897.657 525.527,902.312 518.733,904.821C513.642,906.701 509.473,906.037 504.589,903.829C499.043,901.32 493.706,897.991 488.438,894.948C474.825,887.015 461.485,878.647 448.418,869.842C383.851,827.053 326.107,772.048 283.922,706.852C275.051,693.144 267.086,678.738 259.39,664.342C253.473,653.349 247.902,642.183 242.675,630.845C237.448,619.507 232.576,608.019 228.059,596.38C201.567,526.52 188.173,451.305 183.204,376.935C181.632,353.416 181.179,329.91 180.773,306.351C180.641,298.645 179.701,264.738 182.532,259.674C186.532,252.517 246.374,236.781 258.141,232.609C273.095,211.867 293.165,196.085 315.199,183.371C313.324,181.827 311.414,180.572 311.187,177.949C310.964,175.368 312.811,172.828 314.46,171.049C349.616,133.099 419.827,116.188 469.788,114.218Z" style="fill:rgb(39,57,36);fill-rule:nonzero;"/>
            </g>
            <g id="face-nose" transform="matrix(1.06667,0,0,1.06667,-34.4826,-31.9832)">
                <path d="M769.455,386.365L769.968,386.92C769.73,401.332 764.47,429.449 757.763,441.802L756.324,437.003C754.65,433.006 752.431,429.398 749.941,425.866C755.085,401.675 750.092,404.496 769.455,386.365Z" style="fill:rgb(210,152,82);fill-rule:nonzero;"/>
            </g>
            <g id="ear">
                <g transform="matrix(1.06667,0,0,1.06667,-34.4826,-31.9832)">
                    <path d="M426.08,304.288C425.698,304.172 425.319,304.048 424.944,303.914C408.158,297.95 391.98,282.244 384.437,266.243C380.115,257.073 376.428,242.442 380.311,232.588C381.534,229.484 383.764,227.387 386.805,226.072C392.126,223.769 398.618,223.748 404.319,223.749C433.174,223.752 461.183,232.904 487.861,243.167C483.321,248.27 478.707,253.249 473.554,257.743L435.47,295.799C432.556,298.91 429.571,301.829 426.08,304.288Z" style="fill:rgb(185,123,55);fill-rule:nonzero;"/>
                </g>
                <g transform="matrix(1.06667,0,0,1.06667,-34.4826,-31.9832)">
                    <path d="M435.47,295.799C426.92,286.445 416.802,279.152 409.265,268.722C405.935,264.114 401.999,257.816 403.113,251.903C403.534,249.672 404.607,247.502 406.543,246.223C409.005,244.597 412.199,244.342 415.068,244.458C431.796,245.133 455.595,254.668 473.554,257.743L435.47,295.799Z" style="fill:rgb(149,90,33);fill-rule:nonzero;"/>
                </g>
            </g>
            <path id="face" d="M653.327,471.873C653.432,471.941 653.537,472.008 653.641,472.078C655.233,473.14 656.473,474.67 657.976,475.86C664.283,480.854 669.443,482.803 677.472,481.317C679.588,480.926 681.636,480.111 683.599,479.245C704.347,467.345 726.492,454.653 750.154,449.645C756.151,453.202 761.046,459.232 762.817,466.026C763.93,470.295 763.597,474.863 763.386,479.226C762.502,497.537 758.073,516.827 748.363,532.579C746.576,535.479 744.505,538.158 742.39,540.82L741.967,541.352C739.035,534.157 736.298,528.159 731.61,521.887C730.548,528.072 729.388,533.967 727.105,539.831L726.996,540.111L726.456,541.249C726.273,541.31 726.095,541.392 725.906,541.43C722.729,542.074 716.728,539.786 713.676,538.831C687.547,530.642 664.36,516.674 641.316,502.187C619.397,488.409 598.239,473.826 576.97,459.076C561.302,448.21 528.928,426.086 528.928,426.086C498.619,408.026 473.889,389.344 464.681,353.094C458.576,329.054 464.084,300.926 476.709,279.817C490.313,257.072 510.86,231.809 529.988,213.44C566.012,216.81 641.805,218.907 666.365,248.391C672.842,256.168 673.963,265.465 677.674,274.468C689.205,280.996 700.359,288.068 711.748,294.821C723.836,301.988 781.399,333.8 785.556,343.193C785.446,343.925 785.58,344.414 784.933,344.89C778.488,349.624 724.343,342.9 718.465,349.823C717.763,352.935 718.403,355.608 720.124,358.296C724.68,365.411 735.092,370.439 741.894,375.178C748.866,380.037 756.003,385.606 761.26,392.34C761.056,402.9 759.417,415.803 751.338,423.475C746.247,428.309 739.309,431.221 732.905,433.843C720.101,439.086 706.742,443.126 693.585,447.386C684.059,450.47 673.555,453.119 665.026,458.515C660.011,461.688 655.468,466.215 653.013,471.671L653.327,471.873Z" style="fill:rgb(210,152,82);fill-rule:nonzero;"/>
            <g id="eye" transform="matrix(1.06667,0,0,1.06667,-34.4826,-31.9832)">
                <path d="M621.193,287.219C625.071,287.115 628.81,287.234 632.672,287.603C638.997,299.35 643.539,312.35 648.363,324.772C635.671,319.131 625.055,317.715 612.22,313.749C597.549,308.538 584.385,297.05 571.779,288.022C588.293,288.107 604.693,288.008 621.193,287.219Z" style="fill:rgb(39,57,36);fill-rule:nonzero;"/>
            </g>
            <g id="mane">
                <g transform="matrix(1.06667,0,0,1.06667,-34.4826,-31.9832)">
                    <path d="M459.014,419.339C462.739,425.514 464.308,432.761 467.26,439.34C475.002,456.596 485.592,472.875 497.549,487.488C524.102,520.097 561.387,542.925 585.672,577.281C630.142,640.194 613.455,723.037 565.082,777.7C565.341,701.28 532.732,635.044 485.154,577.263C480.662,571.572 476.081,565.953 471.412,560.406C475.572,571.678 478.017,583.512 481.213,595.095C498.39,657.338 514.692,719.818 507.587,785.201C500.928,781.761 492.954,775.201 487.214,770.494C471.91,757.944 461.059,749.31 447.306,734.984C433.843,720.959 424.736,709.491 414.679,692.846C387.957,648.62 390.513,601.194 406.846,553.769C419.197,517.906 422.919,519.669 438.591,483.064C447.228,462.891 453.45,440.497 459.014,419.339Z" style="fill:rgb(166,103,42);fill-rule:nonzero;"/>
                </g>
                <g transform="matrix(1.06667,0,0,1.06667,-34.4826,-31.9832)">
                    <path d="M352.612,282.671C356.217,281.404 359.804,280.09 363.375,278.73C373.062,298.145 387.6,311.338 405.883,322.674C393.106,332.04 380.976,342.568 369.125,353.077C326.877,390.539 289.286,433.774 272.514,488.744C271.886,488.273 270.844,481.505 270.872,477.824C270.911,472.681 271.824,464.907 272.75,457.883C274.706,443.043 278.54,428.701 283.649,414.653C300.456,368.436 329.484,337.069 367.931,307.495C365.024,303.601 354.677,284.768 352.612,282.671Z" style="fill:rgb(166,103,42);fill-rule:nonzero;"/>
                </g>
                <g transform="matrix(1.06667,0,0,1.06667,-34.4826,-31.9832)">
                    <path d="M441.027,329.485L441.073,329.918L441.321,329.58C443.038,333.851 440.221,338.722 439.8,343.306C438.163,361.109 437.223,381.854 434.984,399.616C431.54,426.952 425.264,453.532 414.118,478.826C403.487,502.953 387.634,524.519 377.323,548.703C359.138,591.354 349.849,640.51 366.616,685.246C352.217,675.533 339.811,665.425 327.797,652.906C295.486,617.473 280.786,568.84 289.445,521.549C304.472,435.312 373.239,377.206 441.027,329.485Z" style="fill:rgb(166,103,42);fill-rule:nonzero;"/>
                </g>
                <g transform="matrix(1.06667,0,0,1.06667,-34.4826,-31.9832)">
                    <path d="M352.612,282.671C356.217,281.404 359.804,280.09 363.375,278.73C373.062,298.145 387.6,311.338 405.883,322.674C393.106,332.04 380.976,342.568 369.125,353.077C326.877,390.539 289.286,433.774 272.514,488.744C265.718,506.676 264.681,527.614 263.496,546.568C253.067,533.239 244.491,516.358 238.984,500.367C224.285,457.68 230.74,409.763 250.242,369.739C271.578,325.951 307.21,298.294 352.612,282.671Z" style="fill:rgb(166,103,42);fill-rule:nonzero;"/>
                </g>
                <g transform="matrix(1.06667,0,0,1.06667,-34.4826,-31.9832)">
                    <path d="M379.629,178.703C403.18,175.381 434.775,188.089 455.058,200.134C462.139,204.339 468.838,209.416 475.571,214.16C450.775,203.276 413.021,195.689 386.447,201.76C375.916,204.165 366.676,209.171 360.834,218.523C353.735,229.884 354.152,244.465 357.091,257.077C330.047,261.777 304.801,275.479 283.167,291.957C280.591,294.025 278.065,296.152 275.589,298.339C273.113,300.525 270.689,302.768 268.318,305.069C265.947,307.369 263.632,309.724 261.372,312.133C259.111,314.542 256.909,317.002 254.764,319.514C252.619,322.027 250.534,324.588 248.509,327.198C246.484,329.808 244.522,332.464 242.622,335.166C240.722,337.868 238.887,340.613 237.116,343.402C235.345,346.191 233.64,349.019 232.001,351.887C242.261,308.015 256.683,268.377 285.897,233.303C308.933,205.646 343.121,182.032 379.629,178.703Z" style="fill:rgb(166,103,42);fill-rule:nonzero;"/>
                </g>
                <g transform="matrix(1.06667,0,0,1.06667,-34.4826,-31.9832)">
                    <path d="M468.328,137.215C493.22,134.874 526.205,140.81 548.671,151.457C576.145,164.477 596.173,186.356 606.36,214.958C594.461,212.831 582.576,210.849 570.561,209.486C557.767,208.035 545.017,207.28 532.331,204.909C521.048,202.386 509.939,199.272 499.299,194.693C487.852,189.767 477.175,183.164 466.279,177.163C437.795,161.473 414.449,154.754 381.576,154.918C412.136,144.892 436.064,138.993 468.328,137.215Z" style="fill:rgb(166,103,42);fill-rule:nonzero;"/>
                </g>
                <g transform="matrix(1.06667,0,0,1.06667,-34.4826,-31.9832)">
                    <path d="M610,536.806C617.345,542.538 625.158,547.57 632.169,553.732C655.455,574.198 673.788,603.189 677.602,634.314C681.028,662.267 672.415,693.865 655.004,716.126C647.757,725.392 637.834,735.043 627.735,741.269C630.145,736.265 631.912,731.171 633.789,725.955C636.455,715.677 639.775,705.782 641.641,695.281C648.858,654.654 642.808,611.295 627.445,573.228C623.794,564.182 611.504,539.836 610,536.806Z" style="fill:rgb(166,103,42);fill-rule:nonzero;"/>
                </g>
            </g>
        </g>
    </g>
</svg>
